<svg xmlns="http://www.w3.org/2000/svg" xml:space="preserve" viewBox="0 0 64 64" height="100" style="fill: #fff">
  <path d="M64 8.9c0-2.786-.794-4.99-2.36-6.55-6.284-6.261-22.806.396-37.62 15.16a20.959 20.959 0 0 0-1.504 1.695 3.468 3.468 0 0 0-.54-.17C17.71 18.04 4.017 20.366.03 36.292a.998.998 0 0 0 1.557 1.053c5.41-3.925 9.751-5.504 13.54-4.923-.261.474-.527.937-.8 1.379a1 1 0 0 0 .143 1.235l1.569 1.564-2.937 2.926a.998.998 0 0 0 0 1.416l9.829 9.797a.997.997 0 0 0 1.412 0l2.94-2.932 1.574 1.569a1 1 0 0 0 1.23.143c.414-.255.843-.502 1.285-.746.65 3.808-.926 8.176-4.914 13.638a1 1 0 0 0 1.049 1.56c15.94-3.963 18.296-17.609 17.313-21.865a3.142 3.142 0 0 0-.224-.645 21.16 21.16 0 0 0 1.834-1.604C57.103 29.22 64 17.066 64 8.9zM16.058 30.548c-3.902-.823-8.189.32-13.28 3.562 2.504-6.948 7.065-10.23 10.643-11.776 2.682-1.158 5.124-1.483 6.686-1.483.42 0 .774.024 1.054.06l-5.103 9.637zm7.579 18.069-8.412-8.385 2.23-2.221 7.268 7.242 1.144 1.14-2.23 2.224zm17.896 1.955c-1.547 3.583-4.842 8.148-11.837 10.651 3.246-5.069 4.394-9.338 3.57-13.23l9.674-5.089c.174 1.315.047 4.299-1.407 7.668zm-6.844-5.708c-1.758.847-3.433 1.651-4.97 2.544L16.436 34.172c.718-1.229 1.38-2.562 2.052-3.94l4.061-7.667c.85-1.316 1.792-2.551 2.883-3.638C38.984 5.419 54.917-1.523 60.228 3.765 61.404 4.937 62 6.665 62 8.9c0 7.545-6.825 19.417-16.982 29.541-2.83 2.82-6.642 4.653-10.329 6.425z"/>
  <path d="M42.725 12.853a5.953 5.953 0 0 0-1.768 4.248c0 1.607.628 3.116 1.768 4.25a6.023 6.023 0 0 0 4.26 1.753 6.02 6.02 0 0 0 4.26-1.754 5.952 5.952 0 0 0 1.767-4.249 5.952 5.952 0 0 0-1.767-4.248c-2.348-2.338-6.17-2.338-8.52 0zm7.11 7.08a4.048 4.048 0 0 1-5.7 0 3.97 3.97 0 0 1-1.178-2.832 3.97 3.97 0 0 1 1.178-2.83 4.028 4.028 0 0 1 2.85-1.173c1.033 0 2.064.391 2.85 1.173a3.969 3.969 0 0 1 1.177 2.83 3.97 3.97 0 0 1-1.177 2.831zM16.465 47.147a1 1 0 0 0-1.414-.002l-9.995 9.962a1 1 0 1 0 1.412 1.416l9.995-9.962a1 1 0 0 0 .002-1.414zM5.725 51.973a1 1 0 0 0 .706-.292l6.582-6.56a1 1 0 0 0-1.412-1.416l-6.583 6.56a1 1 0 0 0 .707 1.708zM18.502 50.584l-6.582 6.56a1 1 0 0 0 1.412 1.416L19.914 52a1 1 0 0 0-1.412-1.416z"/>
</svg>